Coordinates
version=1
nRows=14
nColumns=46
inDegrees=yes

Units are S.I. units (second, meters, Newtons, ...)
Angles are in degrees.

endheader
time	pelvis_tilt	pelvis_list	pelvis_rotation	pelvis_tx	pelvis_ty	pelvis_tz	bb_angle	bb_tx	bb_ty	bb_tz	hip_flexion_r	hip_adduction_r	hip_rotation_r	knee_angle_r	knee_angle_r_beta	ankle_angle_r	subtalar_angle_r	mtp_angle_r	crank_angle_r	hip_flexion_l	hip_adduction_l	hip_rotation_l	knee_angle_l	knee_angle_l_beta	ankle_angle_l	subtalar_angle_l	mtp_angle_l	crank_angle_l	lumbar_extension	lumbar_bending	lumbar_rotation	arm_flex_r	arm_add_r	arm_rot_r	elbow_flex_r	pro_sup_r	wrist_flex_r	wrist_dev_r	arm_flex_l	arm_add_l	arm_rot_l	elbow_flex_l	pro_sup_l	wrist_flex_l	wrist_dev_l
      7.50000000	    -19.31041056	     -6.21747856	     -6.14991469	      0.21216976	      1.04909946	     -0.24186754	      0.00000000	      0.50000000	      0.00000000	      0.25000000	     88.08629143	      3.85318258	      2.18835156	    104.34301361	      1.82112914	     19.32913934	      4.23903232	      0.00000000	      0.00000000	     42.65801508	    -15.98210018	     -5.38861108	     50.63998715	      0.88383451	     -6.57671324	     -2.49788214	      0.00000000	      0.00000000	    -63.57731498	      9.38129845	      6.79465596	     89.69876459	    -13.47410309	     35.70401795	     68.17384825	     35.26261215	      0.00000000	      0.00000000	     76.15991562	    -42.46191577	     30.99609121	     78.02841555	     43.79471621	      0.00000000	      0.00000000
      7.50500000	    -19.09987940	     -6.04973794	     -5.56161326	      0.21201925	      1.04967172	     -0.24091638	      0.00000000	      0.50000000	      0.00000000	      0.25000000	     87.04247691	      3.68222743	      2.37315815	    102.35606678	      1.78645037	     20.20530550	      3.76833780	      0.00000000	      0.00000000	     43.17170816	    -15.70903851	     -4.89060145	     52.82173092	      0.92191312	     -6.37385360	     -2.66494017	      0.00000000	      0.00000000	    -63.73243269	      9.23884274	      6.31464865	     89.69254974	    -13.69932844	     35.60385097	     68.18947125	     35.21371822	      0.00000000	      0.00000000	     76.44517608	    -42.16948210	     30.90794775	     77.95691379	     43.78809182	      0.00000000	      0.00000000
      7.51000000	    -18.86853628	     -6.02417430	     -4.86282844	      0.21173381	      1.05001862	     -0.24029935	      0.00000000	      0.50000000	      0.00000000	      0.25000000	     85.91530925	      3.26895498	      2.24195971	    100.26601427	      1.74997208	     20.95616139	      3.24913008	      0.00000000	      0.00000000	     43.84815280	    -15.45233974	     -4.17275115	     55.25465556	      0.96437567	     -5.88420785	     -3.01940629	      0.00000000	      0.00000000	    -63.95607342	      9.24678557	      5.90973659	     89.68704625	    -14.05783107	     35.47322256	     68.19862026	     35.14814492	      0.00000000	      0.00000000	     77.09846216	    -41.86217846	     30.76695500	     77.98218478	     43.79572557	      0.00000000	      0.00000000
      7.51500000	    -18.71398275	     -6.22500338	     -4.07757130	      0.21133965	      1.05025404	     -0.23970996	      0.00000000	      0.50000000	      0.00000000	      0.25000000	     84.69678207	      2.85617831	      1.80867715	     97.93109570	      1.70922006	     21.37431703	      2.29531711	      0.00000000	      0.00000000	     44.76843712	    -15.31611175	     -3.07474507	     57.78036464	      1.00845761	     -5.46708687	     -3.03503850	      0.00000000	      0.00000000	    -64.12503345	      9.42876416	      5.87964483	     89.67980876	    -14.76144495	     35.20456095	     68.63863787	     35.05868168	      0.00000000	      0.00000000	     77.87053353	    -41.26811457	     31.07936120	     77.87910603	     43.85697992	      0.00000000	      0.00000000
      7.52000000	    -18.36682482	     -5.93726225	     -3.45233447	      0.21118154	      1.05061893	     -0.23898624	      0.00000000	      0.50000000	      0.00000000	      0.25000000	     83.30309702	      2.54934791	      2.02222808	     95.65783907	      1.66954425	     21.91798730	      1.64439763	      0.00000000	      0.00000000	     45.31048289	    -14.84780852	     -2.53676824	     60.24298676	      1.05143847	     -4.98152099	     -3.37662097	      0.00000000	      0.00000000	    -64.41449397	      9.10232749	      5.27096310	     89.66673406	    -15.29895320	     35.13294402	     68.71180167	     35.00748072	      0.00000000	      0.00000000	     78.56078900	    -40.95254808	     31.12102635	     77.89985288	     43.88359450	      0.00000000	      0.00000000
      7.52500000	    -17.98425687	     -5.75407190	     -2.70511218	      0.21101019	      1.05095978	     -0.23846949	      0.00000000	      0.50000000	      0.00000000	      0.25000000	     81.79312993	      2.11803956	      2.07523981	     93.32021520	      1.62874501	     22.22481272	      0.93031339	      0.00000000	      0.00000000	     45.93782182	    -14.35954012	     -1.78628562	     62.78334978	      1.09577617	     -4.46614629	     -3.58939970	      0.00000000	      0.00000000	    -64.74904396	      8.93127312	      4.76465940	     89.65516350	    -15.93258348	     35.04546849	     68.88021884	     34.97177551	      0.00000000	      0.00000000	     79.37736659	    -40.55217695	     31.32260988	     77.96801148	     43.93339615	      0.00000000	      0.00000000
      7.53000000	    -17.58092807	     -5.58884266	     -1.90234667	      0.21081410	      1.05110946	     -0.23792605	      0.00000000	      0.50000000	      0.00000000	      0.25000000	     80.22410596	      1.64866146	      2.03759618	     90.92870570	      1.58700530	     22.21222577	     -0.03109449	      0.00000000	      0.00000000	     46.62454880	    -13.87897573	     -0.98483328	     65.39776673	      1.14140635	     -3.99371851	     -3.65363468	      0.00000000	      0.00000000	    -65.10285466	      8.78810633	      4.42397319	     89.63599087	    -16.88190532	     34.95192996	     69.34936958	     34.96266875	      0.00000000	      0.00000000	     80.40410814	    -39.98968811	     31.97305888	     77.89370777	     44.01293254	      0.00000000	      0.00000000
      7.53500000	    -17.15549047	     -5.18032646	     -1.20421362	      0.21059372	      1.05109352	     -0.23727283	      0.00000000	      0.50000000	      0.00000000	      0.25000000	     78.68521404	      1.17354574	      2.25175808	     88.59973971	      1.54635717	     22.04362383	     -0.84311607	      0.00000000	      0.00000000	     47.22596341	    -13.22416046	     -0.39766179	     68.00064197	      1.18683510	     -3.41332779	     -3.77761615	      0.00000000	      0.00000000	    -65.43893340	      8.09744293	      4.83839528	     89.59314042	    -20.18496246	     35.50754059	     71.35217124	     34.88842537	      0.00000000	      0.00000000	     82.83846785	    -37.92724025	     34.75301240	     76.08039235	     44.24403104	      0.00000000	      0.00000000
      7.54000000	    -16.73332502	     -4.68150085	     -0.45994804	      0.21049242	      1.05099064	     -0.23680119	      0.00000000	      0.50000000	      0.00000000	      0.25000000	     77.11418508	      0.58635759	      2.53219524	     86.29435245	      1.50612058	     21.85101940	     -1.47001321	      0.00000000	      0.00000000	     47.84336461	    -12.44539313	      0.13682950	     70.58339756	      1.23191268	     -2.91340276	     -3.89798282	      0.00000000	      0.00000000	    -65.75382184	      7.75068947	      3.96059430	     89.57118067	    -20.62103403	     35.37456592	     71.31751599	     34.85289264	      0.00000000	      0.00000000	     83.45181400	    -37.61494443	     34.67987123	     76.27335143	     44.28962636	      0.00000000	      0.00000000
      7.54500000	    -16.36860825	     -4.11919749	      0.18434450	      0.21029341	      1.05068086	     -0.23625033	      0.00000000	      0.50000000	      0.00000000	      0.25000000	     75.65027928	      0.03122766	      2.89247422	     83.99933166	      1.46606491	     21.38223719	     -1.90049953	      0.00000000	      0.00000000	     48.53912189	    -11.70511046	      0.50926467	     73.20386456	      1.27764846	     -2.42175833	     -4.01765308	      0.00000000	      0.00000000	    -66.05778833	      7.29181481	      3.07924971	     89.53294196	    -21.06870158	     35.22449867	     71.30683863	     34.83717867	      0.00000000	      0.00000000	     83.96744648	    -37.33856236	     34.67311597	     76.40930443	     44.31808934	      0.00000000	      0.00000000
      7.55000000	    -15.99804739	     -3.82442097	      0.93295537	      0.20996034	      1.05032043	     -0.23576278	      0.00000000	      0.50000000	      0.00000000	      0.25000000	     74.10678912	     -0.48666907	      2.89283716	     81.69187154	      1.42579213	     20.32689427	     -3.31049012	      0.00000000	      0.00000000	     49.35245907	    -11.06455244	      1.32591447	     75.82778008	      1.32344443	     -1.70870073	     -3.37805773	      0.00000000	      0.00000000	    -66.40626501	      6.98126295	      2.79668583	     89.50973991	    -22.30372581	     34.97862129	     71.94657823	     34.93600674	      0.00000000	      0.00000000	     85.06717207	    -36.67948277	     35.46373510	     76.43143092	     44.42629612	      0.00000000	      0.00000000
      7.55500000	    -15.68385772	     -3.20494305	      1.66570930	      0.20972565	      1.04970893	     -0.23559490	      0.00000000	      0.50000000	      0.00000000	      0.25000000	     72.68386473	     -1.24841412	      3.23604947	     79.52679940	      1.38800449	     19.68583289	     -3.48413915	      0.00000000	      0.00000000	     50.15925788	    -10.12721086	      1.74433614	     78.40941106	      1.36850239	     -1.17788446	     -3.48298989	      0.00000000	      0.00000000	    -66.64312925	      6.59653585	      1.84541454	     89.45937320	    -22.93275799	     34.95165655	     72.01110700	     34.95614392	      0.00000000	      0.00000000	     85.70540545	    -36.33393023	     35.53408022	     76.48429874	     44.44330443	      0.00000000	      0.00000000
      7.56000000	    -15.39344695	     -2.77593946	      2.42614682	      0.20938496	      1.04895261	     -0.23536463	      0.00000000	      0.50000000	      0.00000000	      0.25000000	     71.24387675	     -1.91312651	      3.35090169	     77.36521568	      1.35027774	     18.63275541	     -4.45976105	      0.00000000	      0.00000000	     51.09771508	     -9.29046024	      2.43474347	     80.98500156	      1.41345492	     -0.88993022	     -2.76649056	      0.00000000	      0.00000000	    -66.87704631	      6.12525505	      2.17107406	     89.39069509	    -26.21481659	     35.64746208	     73.91286204	     35.50563900	      0.00000000	      0.00000000	     87.14285371	    -34.47600227	     37.28790411	     75.34794760	     44.42496346	      0.00000000	      0.00000000
      7.56500000	    -15.14690546	     -2.09632702	      3.00055544	      0.20922976	      1.04817089	     -0.23502756	      0.00000000	      0.50000000	      0.00000000	      0.25000000	     69.86153269	     -2.55443538	      3.84913284	     75.30101963	      1.31425072	     17.98651562	     -4.41397392	      0.00000000	      0.00000000	     51.96971043	     -8.41397087	      2.68138858	     83.46824496	      1.45679570	     -0.64475744	     -2.81464919	      0.00000000	      0.00000000	    -67.00180608	      5.64791679	      1.22430937	     89.31608146	    -26.55859853	     35.52947863	     73.89671820	     35.50632559	      0.00000000	      0.00000000	     87.34012909	    -34.18563496	     37.29041498	     75.38723028	     44.42918992	      0.00000000	      0.00000000
